<?xml version="1.0" encoding="UTF-8" standalone="no"?>
<!-- Created with Inkscape (http://www.inkscape.org/) -->

<svg
   width="210mm"
   height="297mm"
   viewBox="0 0 210 297"
   version="1.1"
   id="svg2076"
   xml:space="preserve"
   inkscape:version="1.2.2 (b0a8486541, 2022-12-01)"
   sodipodi:docname="swirls.svg"
   xmlns:inkscape="http://www.inkscape.org/namespaces/inkscape"
   xmlns:sodipodi="http://sodipodi.sourceforge.net/DTD/sodipodi-0.dtd"
   xmlns="http://www.w3.org/2000/svg"
   xmlns:svg="http://www.w3.org/2000/svg"><sodipodi:namedview
     id="namedview2078"
     pagecolor="#ffffff"
     bordercolor="#666666"
     borderopacity="1.0"
     inkscape:showpageshadow="2"
     inkscape:pageopacity="0.0"
     inkscape:pagecheckerboard="0"
     inkscape:deskcolor="#d1d1d1"
     inkscape:document-units="mm"
     showgrid="false"
     inkscape:zoom="0.85811406"
     inkscape:cx="586.16916"
     inkscape:cy="449.82365"
     inkscape:window-width="1920"
     inkscape:window-height="1131"
     inkscape:window-x="0"
     inkscape:window-y="0"
     inkscape:window-maximized="1"
     inkscape:current-layer="layer1" /><defs
     id="defs2073" /><g
     inkscape:label="Layer 1"
     inkscape:groupmode="layer"
     id="layer1"><g
       id="g25101"
       transform="matrix(2.9268041,0,0,2.9642695,-207.43587,-178.14512)"
       style="stroke-width:0.529276"><g
         id="g3922"
         transform="matrix(0.07359598,0.04249066,-0.04249066,0.07359598,95.973027,66.96781)"
         style="stroke-width:6.22815"><circle
           style="fill:#000000;fill-opacity:0.996826;stroke:none;stroke-width:3.29573;stroke-dasharray:none;paint-order:stroke fill markers;stop-color:#000000"
           id="path1140"
           cx="181.05515"
           cy="60.850601"
           r="18.324499" /><circle
           style="fill:#000000;fill-opacity:0.996826;stroke:none;stroke-width:3.29573;stroke-dasharray:none;paint-order:stroke fill markers;stop-color:#000000"
           id="circle1144"
           cx="94.273254"
           cy="-181.05515"
           r="11.735271"
           transform="rotate(90)"
           inkscape:transform-center-y="33.422647"
           inkscape:transform-center-x="-1.2146085e-06" /><circle
           style="fill:#000000;fill-opacity:0.996826;stroke:none;stroke-width:3.29573;stroke-dasharray:none;paint-order:stroke fill markers;stop-color:#000000"
           id="circle1146"
           cx="220.6463"
           cy="-37.829403"
           r="11.735271"
           inkscape:transform-center-x="-28.944865"
           transform="rotate(30)"
           inkscape:transform-center-y="16.711327" /><circle
           style="fill:#000000;fill-opacity:0.996826;stroke:none;stroke-width:3.29573;stroke-dasharray:none;paint-order:stroke fill markers;stop-color:#000000"
           id="circle1148"
           cx="-92.950401"
           cy="-143.22574"
           r="11.735271"
           transform="rotate(150)"
           inkscape:transform-center-y="16.711328"
           inkscape:transform-center-x="28.94486" /><circle
           style="fill:#000000;fill-opacity:0.996826;stroke:none;stroke-width:3.29573;stroke-dasharray:none;paint-order:stroke fill markers;stop-color:#000000"
           id="circle1152"
           cx="-27.427952"
           cy="181.05515"
           r="11.735271"
           transform="rotate(-90)"
           inkscape:transform-center-y="-33.422649"
           inkscape:transform-center-x="-1.2146085e-06" /><circle
           style="fill:#000000;fill-opacity:0.996826;stroke:none;stroke-width:3.29573;stroke-dasharray:none;paint-order:stroke fill markers;stop-color:#000000"
           id="circle1154"
           cx="-153.80099"
           cy="37.829403"
           r="11.735271"
           inkscape:transform-center-x="28.944868"
           transform="rotate(-150)"
           inkscape:transform-center-y="-16.711328" /><circle
           style="fill:#000000;fill-opacity:0.996826;stroke:none;stroke-width:3.29573;stroke-dasharray:none;paint-order:stroke fill markers;stop-color:#000000"
           id="circle1156"
           cx="159.7957"
           cy="143.22572"
           r="11.735271"
           transform="rotate(-30)"
           inkscape:transform-center-y="-16.711334"
           inkscape:transform-center-x="-28.944857" /></g><g
         id="g4060"
         style="stroke-width:0.529276"><path
           style="fill:#000000;fill-opacity:0.996826;stroke:#000000;stroke-width:0.140037px;stroke-linecap:round;stroke-linejoin:round;stroke-opacity:1"
           d="m 90.53249,81.699082 c 7.890682,-6.955159 10.4057,-2.352955 10.98175,-1.275254 0.46713,0.87394 -0.48767,1.72989 -1.1504,0.549531 -1.810971,-3.225367 -6.404194,-2.000946 -9.83135,0.725723 z"
           id="path2626"
           sodipodi:nodetypes="cssc" /><path
           style="fill:#000000;fill-opacity:0.996826;stroke:#000000;stroke-width:0.140037px;stroke-linecap:round;stroke-linejoin:round;stroke-opacity:1"
           d="m 100.77736,76.801591 c -2.955393,-1.775302 -7.104497,0.297635 -9.587454,2.345155 -2.482959,2.047519 -6.803174,4.860853 -9.303042,3.201771 -2.568852,-1.704865 -1.553343,-4.628343 0.46006,-4.864568 1.012785,-0.118828 1.793807,0.427557 2.075245,0.987435 0.156483,0.311299 0.141594,0.347552 -0.136979,0.0378 -0.312122,-0.347061 -0.926676,-0.923585 -2.150967,-0.608689 -1.224291,0.314896 -1.525324,2.447034 -0.55409,3.306405 1.165209,1.031006 2.882147,2.032691 7.396064,-1.622053 5.059889,-4.096798 9.198554,-6.177076 12.327093,-3.880419 1.73597,1.274378 0.66814,1.814414 -0.52593,1.097139 z"
           id="path4020"
           sodipodi:nodetypes="sssssszsssss" /><circle
           style="fill:#000000;fill-opacity:0.996826;stroke:none;stroke-width:0.280076;stroke-dasharray:none;paint-order:stroke fill markers;stop-color:#000000"
           id="circle1144-3"
           cx="41.671803"
           cy="-107.05565"
           r="0.76135802"
           transform="rotate(112.62496)"
           inkscape:transform-center-y="-0.10819091"
           inkscape:transform-center-x="0.030651852" /><path
           style="fill:#000000;fill-opacity:0.996826;stroke:#000000;stroke-width:0.140037px;stroke-linecap:round;stroke-linejoin:round;stroke-opacity:1"
           d="m 91.358305,76.387625 c -3.014518,1.572835 -5.66979,5.16802 -7.224822,4.505739 -0.517827,-0.220542 -0.120108,-1.227803 0.59939,-0.887338 1.29047,0.610649 4.157835,-2.737637 6.625432,-3.618401 z"
           id="path4054"
           sodipodi:nodetypes="cssc" /></g><g
         id="g24691"
         style="stroke-width:0.529276"><path
           style="fill:#000000;fill-opacity:0.996826;stroke:#000000;stroke-width:0.140037px;stroke-linecap:round;stroke-linejoin:round;stroke-opacity:1"
           d="m 122.91224,81.699082 c -7.89068,-6.955159 -10.4057,-2.352955 -10.98175,-1.275254 -0.46713,0.87394 0.48767,1.72989 1.1504,0.549531 1.81097,-3.225367 6.40419,-2.000946 9.83135,0.725723 z"
           id="path4062"
           sodipodi:nodetypes="cssc" /><path
           style="fill:#000000;fill-opacity:0.996826;stroke:#000000;stroke-width:0.140037px;stroke-linecap:round;stroke-linejoin:round;stroke-opacity:1"
           d="m 112.66737,76.801591 c 2.95539,-1.775302 7.1045,0.297635 9.58745,2.345155 2.48296,2.047519 6.80318,4.860853 9.30305,3.201771 2.56885,-1.704865 1.55334,-4.628343 -0.46006,-4.864568 -1.01279,-0.118828 -1.79381,0.427557 -2.07525,0.987435 -0.15648,0.311299 -0.14159,0.347552 0.13698,0.0378 0.31212,-0.347061 0.92668,-0.923585 2.15097,-0.608689 1.22429,0.314896 1.52532,2.447034 0.55409,3.306405 -1.16521,1.031006 -2.88215,2.032691 -7.39607,-1.622053 -5.05989,-4.096798 -9.19855,-6.177076 -12.32709,-3.880419 -1.73597,1.274378 -0.66814,1.814414 0.52593,1.097139 z"
           id="path4064"
           sodipodi:nodetypes="sssssszsssss" /><circle
           style="fill:#000000;fill-opacity:0.996826;stroke:none;stroke-width:0.280076;stroke-dasharray:none;paint-order:stroke fill markers;stop-color:#000000"
           id="circle4066"
           cx="123.78345"
           cy="89.962952"
           r="0.76135802"
           transform="matrix(0.38469747,0.92304272,0.92304272,-0.38469747,0,0)"
           inkscape:transform-center-y="-0.10819091"
           inkscape:transform-center-x="0.030651852" /><path
           style="fill:#000000;fill-opacity:0.996826;stroke:#000000;stroke-width:0.140037px;stroke-linecap:round;stroke-linejoin:round;stroke-opacity:1"
           d="m 122.08642,76.387625 c 3.01452,1.572835 5.66979,5.16802 7.22483,4.505739 0.51782,-0.220542 0.1201,-1.227803 -0.59939,-0.887338 -1.29047,0.610649 -4.15784,-2.737637 -6.62544,-3.618401 z"
           id="path4068"
           sodipodi:nodetypes="cssc" /></g></g><g
       id="g24798"
       transform="matrix(1.5589707,0,0,1.5589707,-48.050394,-49.98278)"><path
         style="fill:#000000;fill-opacity:0.996826;stroke:#000000;stroke-width:0.264583px;stroke-linecap:round;stroke-linejoin:round;stroke-opacity:1"
         d="m 152.32049,46.661847 c -12.27779,0.687663 -39.67433,0.590577 -44.06772,0.590577 -1.02464,0 -1.03545,-1.020717 0.0736,-1.025349 4.39569,-0.01836 31.70648,-0.20594 43.99408,0.434772 z"
         id="path24661"
         sodipodi:nodetypes="cssc" /><circle
         style="fill:#000000;fill-opacity:0.996826;stroke:none;stroke-width:0.529165;stroke-linecap:round;stroke-linejoin:round;paint-order:stroke fill markers;stop-color:#000000"
         id="path24655"
         cx="97.581543"
         cy="46.597473"
         r="3.9164531" /><path
         style="fill:#000000;fill-opacity:0.996826;stroke:#000000;stroke-width:0.264583px;stroke-linecap:round;stroke-linejoin:round;stroke-opacity:1"
         d="m 104.21122,43.623627 c 2.95539,-1.775302 7.1045,0.297635 9.58745,2.345155 2.48296,2.047519 6.80318,4.860853 9.30305,3.201771 2.56885,-1.704865 1.55334,-4.628343 -0.46006,-4.864568 -1.01279,-0.118828 -1.79381,0.427557 -2.07525,0.987435 -0.15648,0.311299 -0.14159,0.347552 0.13698,0.0378 0.31212,-0.347061 0.92668,-0.923585 2.15097,-0.608689 1.22429,0.314896 1.52532,2.447034 0.55409,3.306405 -1.16521,1.031006 -2.88215,2.032691 -7.39607,-1.622053 -5.05989,-4.096798 -9.19855,-6.177076 -12.32709,-3.880419 -1.73597,1.274378 -0.66814,1.814414 0.52593,1.097139 z"
         id="path4064-9"
         sodipodi:nodetypes="sssssszsssss" /><circle
         style="fill:#000000;fill-opacity:0.996826;stroke:none;stroke-width:0.529165;stroke-linecap:round;stroke-linejoin:round;paint-order:stroke fill markers;stop-color:#000000"
         id="circle24657"
         cx="104.54912"
         cy="46.597473"
         r="1.9018438" /><circle
         style="fill:#000000;fill-opacity:0.996826;stroke:none;stroke-width:0.529167;stroke-linecap:round;stroke-linejoin:round;paint-order:stroke fill markers;stop-color:#000000"
         id="circle24659"
         cx="154.60461"
         cy="46.597473"
         r="1.2976673" /><g
         id="g24737"
         transform="rotate(180,97.685636,46.582425)"><path
           style="fill:#000000;fill-opacity:0.996826;stroke:#000000;stroke-width:0.264583px;stroke-linecap:round;stroke-linejoin:round;stroke-opacity:1"
           d="m 152.3205,46.661853 c -12.27779,0.68767 -39.67433,0.59058 -44.06772,0.59058 -1.02464,0 -1.03545,-1.02072 0.0736,-1.02535 4.39569,-0.0184 31.70648,-0.20594 43.99408,0.43477 z"
           id="path24725"
           sodipodi:nodetypes="cssc" /><path
           style="fill:#000000;fill-opacity:0.996826;stroke:#000000;stroke-width:0.264583px;stroke-linecap:round;stroke-linejoin:round;stroke-opacity:1"
           d="m 104.21122,43.623625 c 2.95539,-1.7753 7.1045,0.29764 9.58745,2.34516 2.48296,2.04752 6.80318,4.86085 9.30305,3.20177 2.56885,-1.70487 1.55334,-4.62835 -0.46006,-4.86457 -1.01279,-0.11883 -1.79381,0.42756 -2.07525,0.98743 -0.15648,0.3113 -0.14159,0.34756 0.13698,0.0378 0.31212,-0.34706 0.92668,-0.92358 2.15097,-0.60868 1.22429,0.31489 1.52532,2.44703 0.55409,3.3064 -1.16521,1.03101 -2.88215,2.03269 -7.39607,-1.62205 -5.05989,-4.0968 -9.19855,-6.17708 -12.32709,-3.88042 -1.73597,1.27438 -0.66814,1.81441 0.52593,1.09714 z"
           id="path24727"
           sodipodi:nodetypes="sssssszsssss" /><circle
           style="fill:#000000;fill-opacity:0.996826;stroke:none;stroke-width:0.529165;stroke-linecap:round;stroke-linejoin:round;paint-order:stroke fill markers;stop-color:#000000"
           id="circle24729"
           cx="104.54912"
           cy="46.597473"
           r="1.9018438" /><circle
           style="fill:#000000;fill-opacity:0.996826;stroke:none;stroke-width:0.529167;stroke-linecap:round;stroke-linejoin:round;paint-order:stroke fill markers;stop-color:#000000"
           id="circle24731"
           cx="154.60461"
           cy="46.597473"
           r="1.2976673" /></g></g><g
       id="g27082"
       transform="matrix(1.5589707,0,0,1.5589707,-48.050394,-49.98278)"><g
         id="g25117"
         transform="matrix(0.13816874,0.0807929,-0.07977176,0.13993741,77.94167,70.402482)"
         style="stroke:none;stroke-width:6.22815"><circle
           style="fill:#000000;fill-opacity:0.996826;stroke:none;stroke-width:3.29573;stroke-dasharray:none;paint-order:stroke fill markers;stop-color:#000000"
           id="circle25103"
           cx="181.05515"
           cy="60.850601"
           r="16.49205" /><circle
           style="fill:#000000;fill-opacity:0.996826;stroke:none;stroke-width:3.29573;stroke-dasharray:none;paint-order:stroke fill markers;stop-color:#000000"
           id="circle25105"
           cx="94.273254"
           cy="-181.05515"
           r="10.561745"
           transform="rotate(90)"
           inkscape:transform-center-y="33.422647"
           inkscape:transform-center-x="-1.2146085e-06" /><circle
           style="fill:#000000;fill-opacity:0.996826;stroke:none;stroke-width:3.29573;stroke-dasharray:none;paint-order:stroke fill markers;stop-color:#000000"
           id="circle25107"
           cx="220.6463"
           cy="-37.829403"
           r="10.561745"
           inkscape:transform-center-x="-28.944865"
           transform="rotate(30)"
           inkscape:transform-center-y="16.711327" /><circle
           style="fill:#000000;fill-opacity:0.996826;stroke:none;stroke-width:3.29573;stroke-dasharray:none;paint-order:stroke fill markers;stop-color:#000000"
           id="circle25109"
           cx="-92.950401"
           cy="-143.22574"
           r="10.561745"
           transform="rotate(150)"
           inkscape:transform-center-y="16.711328"
           inkscape:transform-center-x="28.94486" /><circle
           style="fill:#000000;fill-opacity:0.996826;stroke:none;stroke-width:3.29573;stroke-dasharray:none;paint-order:stroke fill markers;stop-color:#000000"
           id="circle25111"
           cx="-27.427952"
           cy="181.05515"
           r="10.561745"
           transform="rotate(-90)"
           inkscape:transform-center-y="-33.422649"
           inkscape:transform-center-x="-1.2146085e-06" /><circle
           style="fill:#000000;fill-opacity:0.996826;stroke:none;stroke-width:3.29573;stroke-dasharray:none;paint-order:stroke fill markers;stop-color:#000000"
           id="circle25113"
           cx="-153.80099"
           cy="37.829403"
           r="10.561745"
           inkscape:transform-center-x="28.944868"
           transform="rotate(-150)"
           inkscape:transform-center-y="-16.711328" /><circle
           style="fill:#000000;fill-opacity:0.996826;stroke:none;stroke-width:3.29573;stroke-dasharray:none;paint-order:stroke fill markers;stop-color:#000000"
           id="circle25115"
           cx="159.7957"
           cy="143.22572"
           r="10.561745"
           transform="rotate(-30)"
           inkscape:transform-center-y="-16.711334"
           inkscape:transform-center-x="-28.944857" /></g><path
         style="fill:#000000;fill-opacity:0.996826;stroke:none;stroke-width:0.264583px;stroke-linecap:round;stroke-linejoin:round;stroke-opacity:1"
         d="m 153.53933,93.117874 c -12.27779,0.68766 -39.67433,0.59057 -44.06772,0.59057 -1.02464,0 -1.03545,-1.02071 0.0736,-1.02534 4.39569,-0.0184 31.70648,-0.20594 43.99408,0.43477 z"
         id="path25159"
         sodipodi:nodetypes="cssc" /><path
         style="fill:#000000;fill-opacity:0.996826;stroke:none;stroke-width:0.264583px;stroke-linecap:round;stroke-linejoin:round;stroke-opacity:1"
         d="m 105.43006,90.079654 c 2.95539,-1.7753 7.1045,0.29763 9.58745,2.34515 2.48296,2.04752 6.80318,4.86085 9.30305,3.20177 2.56885,-1.70486 1.55334,-4.62834 -0.46006,-4.86457 -1.01279,-0.11882 -1.79381,0.42756 -2.07525,0.98744 -0.15648,0.3113 -0.14159,0.34755 0.13698,0.0378 0.31212,-0.34706 0.92668,-0.92359 2.15097,-0.60869 1.22429,0.3149 1.52532,2.44703 0.55409,3.30641 -1.16521,1.031 -2.88215,2.03269 -7.39607,-1.62206 -5.05989,-4.0968 -9.19855,-6.17707 -12.32709,-3.88042 -1.73597,1.27438 -0.66814,1.81442 0.52593,1.09714 z"
         id="path25163"
         sodipodi:nodetypes="sssssszsssss" /><circle
         style="fill:#000000;fill-opacity:0.996826;stroke:none;stroke-width:0.529167;stroke-linecap:round;stroke-linejoin:round;paint-order:stroke fill markers;stop-color:#000000"
         id="circle25167"
         cx="155.82346"
         cy="93.053497"
         r="1.2976673" /><g
         id="g25177"
         transform="rotate(180,97.564582,70.197412)"
         style="stroke:none"><path
           style="fill:#000000;fill-opacity:0.996826;stroke:none;stroke-width:0.264583px;stroke-linecap:round;stroke-linejoin:round;stroke-opacity:1"
           d="m 152.3205,46.661853 c -12.27779,0.68767 -39.67433,0.59058 -44.06772,0.59058 -1.02464,0 -1.03545,-1.02072 0.0736,-1.02535 4.39569,-0.0184 31.70648,-0.20594 43.99408,0.43477 z"
           id="path25169"
           sodipodi:nodetypes="cssc" /><path
           style="fill:#000000;fill-opacity:0.996826;stroke:none;stroke-width:0.264583px;stroke-linecap:round;stroke-linejoin:round;stroke-opacity:1"
           d="m 104.21122,43.623625 c 2.95539,-1.7753 7.1045,0.29764 9.58745,2.34516 2.48296,2.04752 6.80318,4.86085 9.30305,3.20177 2.56885,-1.70487 1.55334,-4.62835 -0.46006,-4.86457 -1.01279,-0.11883 -1.79381,0.42756 -2.07525,0.98743 -0.15648,0.3113 -0.14159,0.34756 0.13698,0.0378 0.31212,-0.34706 0.92668,-0.92358 2.15097,-0.60868 1.22429,0.31489 1.52532,2.44703 0.55409,3.3064 -1.16521,1.03101 -2.88215,2.03269 -7.39607,-1.62205 -5.05989,-4.0968 -9.19855,-6.17708 -12.32709,-3.88042 -1.73597,1.27438 -0.66814,1.81441 0.52593,1.09714 z"
           id="path25171"
           sodipodi:nodetypes="sssssszsssss" /><circle
           style="fill:#000000;fill-opacity:0.996826;stroke:none;stroke-width:0.529167;stroke-linecap:round;stroke-linejoin:round;paint-order:stroke fill markers;stop-color:#000000"
           id="circle25175"
           cx="154.60461"
           cy="46.597473"
           r="1.2976673" /></g></g><g
       id="g28516"
       transform="matrix(0.15313593,0.08954483,-0.08841308,0.1550962,82.544295,112.09745)"
       style="stroke:none;stroke-width:8.76052"><circle
         style="fill:#000000;fill-opacity:0.996826;stroke:none;stroke-width:4.63577;stroke-dasharray:none;paint-order:stroke fill markers;stop-color:#000000"
         id="circle28502"
         cx="181.05515"
         cy="60.850601"
         r="16.49205" /><circle
         style="fill:#000000;fill-opacity:0.996826;stroke:none;stroke-width:4.63577;stroke-dasharray:none;paint-order:stroke fill markers;stop-color:#000000"
         id="circle28504"
         cx="94.273254"
         cy="-181.05515"
         r="10.561745"
         transform="rotate(90)"
         inkscape:transform-center-y="33.422647"
         inkscape:transform-center-x="-1.2146085e-06" /><circle
         style="fill:#000000;fill-opacity:0.996826;stroke:none;stroke-width:4.63577;stroke-dasharray:none;paint-order:stroke fill markers;stop-color:#000000"
         id="circle28506"
         cx="220.6463"
         cy="-37.829403"
         r="10.561745"
         inkscape:transform-center-x="-28.944865"
         transform="rotate(30)"
         inkscape:transform-center-y="16.711327" /><circle
         style="fill:#000000;fill-opacity:0.996826;stroke:none;stroke-width:4.63577;stroke-dasharray:none;paint-order:stroke fill markers;stop-color:#000000"
         id="circle28508"
         cx="-92.950401"
         cy="-143.22574"
         r="10.561745"
         transform="rotate(150)"
         inkscape:transform-center-y="16.711328"
         inkscape:transform-center-x="28.94486" /><circle
         style="fill:#000000;fill-opacity:0.996826;stroke:none;stroke-width:4.63577;stroke-dasharray:none;paint-order:stroke fill markers;stop-color:#000000"
         id="circle28510"
         cx="-27.427952"
         cy="181.05515"
         r="10.561745"
         transform="rotate(-90)"
         inkscape:transform-center-y="-33.422649"
         inkscape:transform-center-x="-1.2146085e-06" /><circle
         style="fill:#000000;fill-opacity:0.996826;stroke:none;stroke-width:4.63577;stroke-dasharray:none;paint-order:stroke fill markers;stop-color:#000000"
         id="circle28512"
         cx="-153.80099"
         cy="37.829403"
         r="10.561745"
         inkscape:transform-center-x="28.944868"
         transform="rotate(-150)"
         inkscape:transform-center-y="-16.711328" /><circle
         style="fill:#000000;fill-opacity:0.996826;stroke:none;stroke-width:4.63577;stroke-dasharray:none;paint-order:stroke fill markers;stop-color:#000000"
         id="circle28514"
         cx="159.7957"
         cy="143.22572"
         r="10.561745"
         transform="rotate(-30)"
         inkscape:transform-center-y="-16.711334"
         inkscape:transform-center-x="-28.944857" /></g><path
       style="fill:#000000;fill-opacity:0.996826;stroke:none;stroke-width:0.412477px;stroke-linecap:round;stroke-linejoin:round;stroke-opacity:1"
       d="m 191.31292,137.08069 c -19.14072,1.07204 -61.85112,0.92068 -68.70028,0.92068 -1.59739,0 -1.61424,-1.59126 0.11474,-1.59848 6.85275,-0.0287 49.42947,-0.32105 68.58547,0.6778 z"
       id="path28518"
       sodipodi:nodetypes="cssc" /><circle
       style="fill:#000000;fill-opacity:0.996826;stroke:none;stroke-width:0.824956;stroke-linecap:round;stroke-linejoin:round;paint-order:stroke fill markers;stop-color:#000000"
       id="circle28522"
       cx="194.87381"
       cy="136.98033"
       r="2.0230253" /><g
       id="g28530"
       transform="matrix(-1.5589707,0,0,-1.5589707,256.15026,210.78407)"
       style="stroke:none"><path
         style="fill:#000000;fill-opacity:0.996826;stroke:none;stroke-width:0.264583px;stroke-linecap:round;stroke-linejoin:round;stroke-opacity:1"
         d="m 152.3205,46.661853 c -12.27779,0.68767 -39.67433,0.59058 -44.06772,0.59058 -1.02464,0 -1.03545,-1.02072 0.0736,-1.02535 4.39569,-0.0184 31.70648,-0.20594 43.99408,0.43477 z"
         id="path28524"
         sodipodi:nodetypes="cssc" /><circle
         style="fill:#000000;fill-opacity:0.996826;stroke:none;stroke-width:0.529167;stroke-linecap:round;stroke-linejoin:round;paint-order:stroke fill markers;stop-color:#000000"
         id="circle28528"
         cx="154.60461"
         cy="46.597473"
         r="1.2976673" /></g><g
       id="g29516"
       transform="matrix(1.5589707,0,0,1.5589707,-48.050394,-49.98278)"><g
         id="g29487"
         transform="rotate(180,97.564582,94.886987)"
         style="stroke:none"><path
           style="fill:#000000;fill-opacity:0.996826;stroke:none;stroke-width:0.264583px;stroke-linecap:round;stroke-linejoin:round;stroke-opacity:1"
           d="m 152.32049,46.661853 c -15.3992,0.68767 -49.76083,0.59058 -55.271158,0.59058 -1.285137,0 -1.298695,-1.02072 0.09231,-1.02535 5.513218,-0.0184 39.767298,-0.20594 55.178798,0.43477 z"
           id="path29483"
           sodipodi:nodetypes="cssc" /><circle
           style="fill:#000000;fill-opacity:0.996826;stroke:none;stroke-width:0.529167;stroke-linecap:round;stroke-linejoin:round;paint-order:stroke fill markers;stop-color:#000000"
           id="circle29485"
           cx="154.60461"
           cy="46.597473"
           r="1.2976673" /></g><g
         id="g29508"
         transform="matrix(1,0,0,-1,0.74663327,189.77397)"
         style="stroke:none"><path
           style="fill:#000000;fill-opacity:0.996826;stroke:none;stroke-width:0.264583px;stroke-linecap:round;stroke-linejoin:round;stroke-opacity:1"
           d="m 152.32049,46.661853 c -15.3992,0.68767 -49.76083,0.59058 -55.271158,0.59058 -1.285137,0 -1.298695,-1.02072 0.09231,-1.02535 5.513218,-0.0184 39.767298,-0.20594 55.178798,0.43477 z"
           id="path29504"
           sodipodi:nodetypes="cssc" /><circle
           style="fill:#000000;fill-opacity:0.996826;stroke:none;stroke-width:0.529167;stroke-linecap:round;stroke-linejoin:round;paint-order:stroke fill markers;stop-color:#000000"
           id="circle29506"
           cx="154.60461"
           cy="46.597473"
           r="1.2976673" /></g></g></g></svg>
