<?xml version="1.0" encoding="UTF-8"?>
<!-- Created with Inkscape (http://www.inkscape.org/) -->
<svg width="256" height="256" version="1.1" viewBox="0 0 256 256" xml:space="preserve" xmlns="http://www.w3.org/2000/svg" xmlns:xlink="http://www.w3.org/1999/xlink"><defs><linearGradient id="linearGradient122" x1="48.338" x2="78.104" y1="13.229" y2="122.24" gradientTransform="matrix(2.3484 0 0 2.3484 -31.067 -31.068)" gradientUnits="userSpaceOnUse"><stop stop-color="#a53d6b" offset="0"/><stop stop-color="#652945" offset="1"/></linearGradient><filter id="filter5" x="-.027" y="-.027" width="1.054" height="1.054" color-interpolation-filters="sRGB"><feGaussianBlur stdDeviation="2.88"/></filter><clipPath id="clipPath5"><path d="m256 79.73c0-3.0384 0-6.08-0.0186-9.1184-0.0155-2.56-0.0435-5.12-0.11185-7.68-0.15223-5.5767-0.48155-11.203-1.4726-16.718-1.0066-5.5953-2.6501-10.802-5.2381-15.885-2.5445-4.9988-5.8687-9.5689-9.8361-13.533-3.9643-3.9643-8.5406-7.2885-13.536-9.8299-5.0889-2.5911-10.302-4.2315-15.904-5.2381-5.5177-0.99107-11.144-1.3204-16.721-1.4695-2.56-0.06835-5.1231-0.09942-7.6831-0.11495-3.0416-0.01864-6.0831-0.01553-9.1247-0.01553l-35.306-0.12738h-26.408l-34.684 0.12738c-3.0478 0-6.0924-0.0031-9.1402 0.01553-2.5662 0.01553-5.1324 0.0466-7.6986 0.11495-5.5891 0.14913-11.231 0.47845-16.758 1.4695-5.6109 1.0066-10.83 2.647-15.925 5.235-5.0082 2.5445-9.5938 5.8687-13.567 9.833s-7.3041 8.5344-9.8548 13.53c-2.5942 5.0858-4.2408 10.296-5.2505 15.894-0.99107 5.5146-1.3204 11.138-1.4726 16.711-0.06835 2.56-0.09942 5.12-0.11495 7.68-0.018641 3.0384-0.17398 6.8163-0.17398 9.8548v60.893l0.15845 34.93c0 3.0416-0.0031 6.0862 0.01553 9.1278 0.01553 2.5662 0.0466 5.1293 0.11495 7.6924 0.15223 5.5829 0.48155 11.216 1.4757 16.739 1.0066 5.6016 2.6532 10.818 5.2474 15.907 2.5507 5.005 5.8812 9.5845 9.8548 13.552 3.9736 3.9705 8.5561 7.2979 13.564 9.8454 5.0983 2.5911 10.321 4.2377 15.935 5.2443 5.527 0.99107 11.163 1.3204 16.752 1.4695 2.5662 0.0715 5.1324 0.0994 7.6986 0.11495 3.0478 0.01864 6.0924 0.01864 9.1402 0.01864h96.398c3.0416 0 6.0831 0 9.1247-0.0186 2.56-0.0155 5.1231-0.0435 7.6831-0.11495 5.5798-0.14913 11.209-0.47845 16.727-1.4726 5.5984-1.0066 10.809-2.6501 15.894-5.2412 4.9988-2.5476 9.572-5.875 13.539-9.8454 3.9674-3.9674 7.2916-8.5468 9.8361-13.549 2.5911-5.092 4.2315-10.308 5.2381-15.916 0.99107-5.5208 1.3204-11.153 1.4726-16.733 0.0684-2.5631 0.0963-5.1262 0.11185-7.6924 0.01864-3.0416 0.01864-6.0862 0.01864-9.1278 0 0-3e-3 -34.315-3e-3 -34.93v-26.718c0-0.4567 3e-3 -34.911 3e-3 -34.911" stroke-width=".31068"/></clipPath></defs><path d="m256 82.73c0-3.0384 0-6.08-0.0186-9.1184-0.0155-2.56-0.0435-5.12-0.11185-7.68-0.15223-5.5767-0.48155-11.203-1.4726-16.718-1.0066-5.5953-2.6501-10.802-5.2381-15.885-2.5445-4.9988-5.8687-9.5689-9.8361-13.533-3.9643-3.9643-8.5406-7.2885-13.536-9.8299-5.0889-2.5911-10.302-4.2315-15.904-5.2381-5.5177-0.99107-11.144-1.3204-16.721-1.4695-2.56-0.06835-5.1231-0.09942-7.6831-0.11495-3.0416-0.01864-6.0831-0.01553-9.1247-0.01553l-35.306-0.12738h-26.408l-34.684 0.12738c-3.0478 0-6.0924-0.0031-9.1402 0.01553-2.5662 0.01553-5.1324 0.0466-7.6986 0.11495-5.5891 0.14913-11.231 0.47845-16.758 1.4695-5.6109 1.0066-10.83 2.647-15.925 5.235-5.0082 2.5445-9.5938 5.8687-13.567 9.833s-7.3041 8.5344-9.8548 13.53c-2.5942 5.0858-4.2408 10.296-5.2505 15.894-0.99107 5.5146-1.3204 11.138-1.4726 16.711-0.06835 2.56-0.09942 5.12-0.11495 7.68-0.018641 3.0384-0.17398 6.8163-0.17398 9.8548v60.893l0.15845 34.93c0 3.0416-0.0031 6.0862 0.01553 9.1278 0.01553 2.5662 0.0466 5.1293 0.11495 7.6924 0.15223 5.5829 0.48155 11.216 1.4757 16.739 1.0066 5.6016 2.6532 10.818 5.2474 15.907 2.5507 5.005 5.8812 9.5845 9.8548 13.552 3.9736 3.9705 8.5561 7.2979 13.564 9.8454 5.0983 2.5911 10.321 4.2377 15.935 5.2443 5.527 0.99107 11.163 1.3204 16.752 1.4695 2.5662 0.0715 5.1324 0.0994 7.6986 0.11495 3.0478 0.01864 6.0924 0.01864 9.1402 0.01864h96.398c3.0416 0 6.0831 0 9.1247-0.0186 2.56-0.0155 5.1231-0.0435 7.6831-0.11495 5.5798-0.14913 11.209-0.47845 16.727-1.4726 5.5984-1.0066 10.809-2.6501 15.894-5.2412 4.9988-2.5476 9.572-5.875 13.539-9.8454 3.9674-3.9674 7.2916-8.5468 9.8361-13.549 2.5911-5.092 4.2315-10.308 5.2381-15.916 0.99107-5.5208 1.3204-11.153 1.4726-16.733 0.0684-2.5631 0.0963-5.1262 0.11185-7.6924 0.01864-3.0416 0.01864-6.0862 0.01864-9.1278 0 0-3e-3 -34.315-3e-3 -34.93v-26.718c0-0.4567 3e-3 -34.911 3e-3 -34.911" fill-opacity=".30196" filter="url(#filter5)" stroke-width=".31068"/><path d="m0 0v256h256l1e-5 -256z" clip-path="url(#clipPath5)" fill="url(#linearGradient122)" stop-color="#000000" stroke-linecap="square" stroke-opacity=".28985" stroke-width=".55996" style="paint-order:stroke fill markers"/></svg>
