<?xml version="1.0" encoding="UTF-8"?>
<!-- Created with Inkscape (http://www.inkscape.org/) -->
<svg width="256" height="256" version="1.1" viewBox="0 0 256 256" xml:space="preserve" xmlns="http://www.w3.org/2000/svg" xmlns:xlink="http://www.w3.org/1999/xlink"><defs><linearGradient id="linearGradient122" x1="48.338" x2="78.104" y1="13.229" y2="122.24" gradientTransform="matrix(2.3484 0 0 2.3484 -31.067 -31.068)" gradientUnits="userSpaceOnUse"><stop stop-color="#a53d6b" offset="0"/><stop stop-color="#652945" offset="1"/></linearGradient><filter id="filter5" x="-.027" y="-.027" width="1.054" height="1.054" color-interpolation-filters="sRGB"><feGaussianBlur stdDeviation="2.8799999"/></filter><clipPath id="clipPath5"><path d="m256 79.726q6e-3 -4.5545-0.0186-9.1153-0.0124-3.84-0.11185-7.68c-0.14912-5.5798-0.47844-11.203-1.4726-16.721-1.0066-5.5922-2.647-10.799-5.238-15.882-2.5476-4.9957-5.8718-9.5689-9.8361-13.533-3.9643-3.9642-8.5374-7.2885-13.539-9.8299-5.0889-2.591-10.302-4.2314-15.9-5.238-5.5176-0.98796-11.141-1.3173-16.721-1.4726q-3.84-0.0932-7.6862-0.11185-4.5608-0.0248-9.1215-0.0186l-35.306-0.12431h-26.408l-34.684 0.12427q-4.567-6e-3 -9.1402 0.0186-3.8524 0.0186-7.6986 0.11185c-5.5922 0.15534-11.228 0.48465-16.758 1.4726-5.6108 1.0066-10.83 2.647-15.925 5.238-5.0081 2.5414-9.5937 5.8656-13.564 9.8299-3.9767 3.9642-7.3071 8.5312-9.8547 13.527-2.5973 5.0889-4.2439 10.302-5.2505 15.901-0.99417 5.5114-1.3235 11.135-1.4726 16.708q-0.09942 3.84-0.11806 7.68c-0.01864 3.0384-0.17398 6.8163-0.17398 9.8547v60.893l0.15534 34.926q0 4.567 0.01864 9.1339 0.01864 3.8462 0.11806 7.6862c0.14913 5.586 0.47844 11.222 1.4726 16.746 1.0066 5.5984 2.6532 10.812 5.2442 15.907 2.5538 5.0019 5.8842 9.5813 9.8609 13.552 3.9705 3.9642 8.5561 7.2947 13.564 9.8423 5.0951 2.5911 10.321 4.2376 15.932 5.2442 5.5239 0.98796 11.166 1.3173 16.752 1.4726q3.8462 0.0932 7.6986 0.11185 4.5732 0.0249 9.1402 0.0186h96.397q4.5608 6e-3 9.1215-0.0186 3.8462-0.0186 7.6862-0.11185c5.5798-0.15534 11.209-0.48465 16.727-1.4726 5.5984-1.0066 10.805-2.6532 15.894-5.2442 5.0019-2.5476 9.5751-5.8718 13.539-9.8423 3.9642-3.9705 7.2885-8.5499 9.8361-13.552 2.591-5.0951 4.2314-10.308 5.238-15.913 0.99417-5.5239 1.3235-11.153 1.4726-16.739q0.0994-3.84 0.11185-7.6862 0.0248-4.567 0.0186-9.1339v-34.926-26.718-34.914" stroke-width=".62136"/></clipPath></defs><path d="m256 82.726q6e-3 -4.5545-0.0186-9.1153-0.0124-3.84-0.11186-7.68c-0.14912-5.5798-0.47843-11.203-1.4726-16.721-1.0066-5.5922-2.647-10.799-5.238-15.882-2.5476-4.9957-5.8718-9.5689-9.8361-13.533s-8.5374-7.2885-13.539-9.8299c-5.0889-2.591-10.302-4.2314-15.9-5.238-5.5176-0.98796-11.141-1.3173-16.721-1.4726q-3.84-0.0932-7.6862-0.11185-4.5608-0.0248-9.1215-0.0186l-35.306-0.12433h-26.408l-34.684 0.12427q-4.567-6e-3 -9.1402 0.0186-3.8524 0.0186-7.6986 0.11185c-5.5922 0.15534-11.228 0.48465-16.758 1.4726-5.6108 1.0066-10.83 2.647-15.925 5.238-5.0081 2.5414-9.5937 5.8656-13.564 9.8299-3.9767 3.9643-7.3072 8.5312-9.8547 13.527-2.5973 5.0889-4.2439 10.302-5.2505 15.901-0.99417 5.5114-1.3235 11.135-1.4726 16.708q-0.09942 3.84-0.11806 7.68c-0.01864 3.0384-0.17398 6.8163-0.17398 9.8547v60.893l0.15534 34.926q0 4.567 0.01864 9.1339 0.01864 3.8462 0.11806 7.6862c0.14913 5.586 0.47845 11.222 1.4726 16.746 1.0066 5.5984 2.6532 10.812 5.2442 15.907 2.5538 5.0019 5.8842 9.5813 9.8609 13.552 3.9705 3.9643 8.5561 7.2947 13.564 9.8423 5.0951 2.5911 10.321 4.2376 15.932 5.2442 5.5239 0.98796 11.166 1.3173 16.752 1.4726q3.8462 0.0932 7.6986 0.11185 4.5732 0.0249 9.1402 0.0186h96.397q4.5608 6e-3 9.1215-0.0186 3.8462-0.0186 7.6862-0.11185c5.5798-0.15534 11.209-0.48466 16.727-1.4726 5.5984-1.0066 10.805-2.6532 15.894-5.2442 5.0019-2.5476 9.5751-5.8718 13.539-9.8423 3.9642-3.9705 7.2885-8.5499 9.8361-13.552 2.5911-5.0951 4.2314-10.308 5.238-15.913 0.99418-5.5239 1.3235-11.153 1.4726-16.739q0.0994-3.84 0.11186-7.6862 0.0248-4.567 0.0186-9.1339v-34.926-26.718-34.914" fill-opacity=".30196" filter="url(#filter5)" stroke-width=".62136"/><path d="m0 0v256h256l1e-5 -256z" clip-path="url(#clipPath5)" fill="url(#linearGradient122)" stop-color="#000000" stroke-linecap="square" stroke-opacity=".28985" stroke-width=".55996" style="paint-order:stroke fill markers"/></svg>
