<?xml version="1.0" encoding="UTF-8" standalone="no"?>
<!-- Created with Inkscape (http://www.inkscape.org/) -->

<svg
   width="256"
   height="256"
   version="1.1"
   viewBox="0 0 256 256"
   id="svg2"
   sodipodi:docname="bg_tiny_square.svg"
   inkscape:version="1.4 (e7c3feb100, 2024-10-09)"
   xmlns:inkscape="http://www.inkscape.org/namespaces/inkscape"
   xmlns:sodipodi="http://sodipodi.sourceforge.net/DTD/sodipodi-0.dtd"
   xmlns:xlink="http://www.w3.org/1999/xlink"
   xmlns="http://www.w3.org/2000/svg"
   xmlns:svg="http://www.w3.org/2000/svg">
   <sodipodi:namedview
      id="namedview2"
      pagecolor="#ffffff"
      bordercolor="#000000"
      borderopacity="0.25"
      inkscape:showpageshadow="2"
      inkscape:pageopacity="0.0"
      inkscape:pagecheckerboard="0"
      inkscape:deskcolor="#d1d1d1"
      inkscape:zoom="3.59375"
      inkscape:cx="127.86087"
      inkscape:cy="128"
      inkscape:window-width="1920"
      inkscape:window-height="1131"
      inkscape:window-x="0"
      inkscape:window-y="0"
      inkscape:window-maximized="1"
      inkscape:current-layer="svg2" />
   <defs
      id="defs2">
      <linearGradient
         id="linearGradient122"
         x1="48.338"
         x2="78.104"
         y1="13.229"
         y2="122.24"
         gradientTransform="matrix(2.3484,0,0,2.3484,-31.067,-31.068)"
         gradientUnits="userSpaceOnUse">
         <stop
            stop-color="#a53d6b"
            offset="0"
            id="stop1" />
         <stop
            stop-color="#652945"
            offset="1"
            id="stop2" />
      </linearGradient>
   </defs>
   <path
      d="m112 0v0.011719c-21.198 0.015612-43.706 0.074694-51.98 0.34961-14.896 0.49491-29.889 3.4565-43.186 16.471-13.014 13.297-15.976 28.29-16.471 43.186-0.27492 8.2747-0.334 30.783-0.34961 51.982h-0.011719v32h0.011719c0.015609 21.199 0.074684 43.708 0.34961 51.982 0.49491 14.896 3.4565 29.889 16.471 43.186 13.297 13.014 28.29 15.976 43.186 16.471 8.2744 0.27492 30.782 0.33398 51.98 0.34961v0.01172h32.002v-0.0117c21.198-0.0156 43.706-0.0747 51.98-0.34961 14.896-0.49491 29.889-3.4565 43.186-16.471 13.014-13.297 15.976-28.29 16.471-43.186 0.27493-8.2746 0.334-30.783 0.34961-51.982h0.0117v-32h-0.0117c-0.01561-21.199-0.07469-43.708-0.34961-51.982-0.49492-14.896-3.4565-29.889-16.471-43.186-13.297-13.014-28.29-15.976-43.186-16.471-8.2744-0.27492-30.782-0.334-51.98-0.34961v-0.011719z"
      fill="url(#linearGradient122)"
      stop-color="#000000"
      stroke-linecap="square"
      stroke-opacity=".28985"
      stroke-width=".55996"
      style="-inkscape-stroke:none;font-variation-settings:normal;paint-order:stroke fill markers"
      id="path2" />
</svg>