<?xml version="1.0" encoding="UTF-8" standalone="no"?>
<!-- Created with Inkscape (http://www.inkscape.org/) -->

<svg
   width="256"
   height="256"
   viewBox="0 0 256 256"
   version="1.1"
   id="svg1"
   inkscape:version="1.4 (e7c3feb100, 2024-10-09)"
   sodipodi:docname="blossom_small.svg"
   xmlns:inkscape="http://www.inkscape.org/namespaces/inkscape"
   xmlns:sodipodi="http://sodipodi.sourceforge.net/DTD/sodipodi-0.dtd"
   xmlns="http://www.w3.org/2000/svg"
   xmlns:svg="http://www.w3.org/2000/svg">
  <sodipodi:namedview
     id="namedview1"
     pagecolor="#ffffff"
     bordercolor="#000000"
     borderopacity="0.25"
     inkscape:showpageshadow="2"
     inkscape:pageopacity="0.0"
     inkscape:pagecheckerboard="0"
     inkscape:deskcolor="#d1d1d1"
     inkscape:document-units="px"
     inkscape:zoom="1.4142136"
     inkscape:cx="230.16325"
     inkscape:cy="138.59293"
     inkscape:window-width="1920"
     inkscape:window-height="1131"
     inkscape:window-x="0"
     inkscape:window-y="0"
     inkscape:window-maximized="1"
     inkscape:current-layer="layer1"
     showgrid="true"
     showguides="true">
    <inkscape:grid
       id="grid4"
       units="px"
       originx="0"
       originy="0"
       spacingx="4"
       spacingy="4"
       empcolor="#0099e5"
       empopacity="0.30196078"
       color="#0099e5"
       opacity="0.14901961"
       empspacing="4"
       enabled="true"
       visible="true" />
    <sodipodi:guide
       position="128,128"
       orientation="-0.70710678,0.70710678"
       id="guide1"
       inkscape:locked="false"
       inkscape:label=""
       inkscape:color="rgb(0,134,229)" />
    <sodipodi:guide
       position="128,128"
       orientation="0.4539905,0.89100652"
       id="guide2"
       inkscape:label=""
       inkscape:locked="false"
       inkscape:color="rgb(0,134,229)" />
    <sodipodi:guide
       position="128,128"
       orientation="0.98768834,-0.15643447"
       id="guide3"
       inkscape:label=""
       inkscape:locked="false"
       inkscape:color="rgb(0,134,229)" />
    <sodipodi:guide
       position="128,128"
       orientation="0.15643447,-0.98768834"
       id="guide4"
       inkscape:label=""
       inkscape:locked="false"
       inkscape:color="rgb(0,134,229)" />
    <sodipodi:guide
       position="128,128"
       orientation="-0.89100652,-0.4539905"
       id="guide5"
       inkscape:label=""
       inkscape:locked="false"
       inkscape:color="rgb(0,134,229)" />
  </sodipodi:namedview>
  <defs
     id="defs1" />
  <g
     inkscape:label="Layer 1"
     inkscape:groupmode="layer"
     id="layer1">
    <g
       id="g47"
       transform="matrix(22.402637,0,0,22.410051,-1815.2098,-377.04436)"
       style="font-variation-settings:normal;display:inline;opacity:1;vector-effect:none;fill:#f0cece;fill-opacity:1;stroke-width:0.0023613px;stroke-linecap:butt;stroke-linejoin:miter;stroke-miterlimit:4;stroke-dasharray:none;stroke-dashoffset:0;stroke-opacity:1;-inkscape-stroke:none;paint-order:stroke fill markers;stop-color:#000000;stop-opacity:1">
      <path
         id="path43-3"
         style="font-variation-settings:normal;vector-effect:none;fill:#f0cece;fill-opacity:1;stroke-width:0.0023613px;stroke-linecap:butt;stroke-linejoin:miter;stroke-miterlimit:4;stroke-dasharray:none;stroke-dashoffset:0;stroke-opacity:1;-inkscape-stroke:none;paint-order:stroke fill markers;stop-color:#000000;stop-opacity:1"
         d="m 91.870056,20.030587 c -0.660269,0.698453 -2.662679,1.240713 -3.262706,0.640686 -0.600027,-0.600027 -0.05172,-2.596098 0.640688,-3.262704 0.59511,-0.572934 1.284467,-0.745891 2.09004,-0.422224 0.337743,0.1357 0.09683,0.664619 0.158856,0.795344 0.127798,0.06788 0.634521,-0.22275 0.791991,0.151445 0.33337,0.79221 0.14476,1.501271 -0.418869,2.097453 z"
         sodipodi:nodetypes="szsscss" />
      <path
         id="path44-5"
         style="font-variation-settings:normal;vector-effect:none;fill:#f0cece;fill-opacity:1;stroke-width:0.0023613px;stroke-linecap:butt;stroke-linejoin:miter;stroke-miterlimit:4;stroke-dasharray:none;stroke-dashoffset:0;stroke-opacity:1;-inkscape-stroke:none;paint-order:stroke fill markers;stop-color:#000000;stop-opacity:1"
         d="m 89.094019,26.030714 c -0.868317,-0.412088 -2.002879,-2.148885 -1.617665,-2.904977 0.385178,-0.756111 2.453023,-0.851516 3.300986,-0.39902 0.728785,0.388949 1.106341,0.991069 1.047483,1.857234 -0.02468,0.363148 -0.602158,0.297492 -0.707314,0.396882 -0.02506,0.142519 0.407944,0.534617 0.100734,0.800024 -0.650399,0.561883 -1.383038,0.601643 -2.124224,0.249857 z"
         sodipodi:nodetypes="szsscss"
         inkscape:transform-center-x="-3.0168147"
         inkscape:transform-center-y="1.6761015" />
      <path
         id="path45-6"
         style="font-variation-settings:normal;vector-effect:none;fill:#f0cece;fill-opacity:1;stroke-width:0.0023613px;stroke-linecap:butt;stroke-linejoin:miter;stroke-miterlimit:4;stroke-dasharray:none;stroke-dashoffset:0;stroke-opacity:1;-inkscape-stroke:none;paint-order:stroke fill markers;stop-color:#000000;stop-opacity:1"
         d="m 84.18226,26.088904 c 0.123545,-0.953167 1.424655,-2.568967 2.262786,-2.436295 0.838138,0.132632 1.567972,2.06975 1.399706,3.016049 -0.144663,0.813315 -0.600614,1.358481 -1.442563,1.570206 -0.352997,0.08877 -0.469034,-0.480732 -0.596058,-0.550021 -0.143287,0.02021 -0.382361,0.553203 -0.729722,0.343062 -0.73539,-0.444897 -0.999637,-1.129378 -0.894149,-1.943001 z"
         sodipodi:nodetypes="szsscss"
         inkscape:transform-center-x="0.58356008"
         inkscape:transform-center-y="3.2671796" />
      <path
         id="path46"
         style="font-variation-settings:normal;vector-effect:none;fill:#f0cece;fill-opacity:1;stroke-width:0.0023613px;stroke-linecap:butt;stroke-linejoin:miter;stroke-miterlimit:4;stroke-dasharray:none;stroke-dashoffset:0;stroke-opacity:1;-inkscape-stroke:none;paint-order:stroke fill markers;stop-color:#000000;stop-opacity:1"
         d="m 82.6123,21.424633 c 0.945168,-0.174495 2.881949,0.568858 3.012504,1.407321 0.130594,0.838458 -1.489668,2.126803 -2.442003,2.256624 -0.818516,0.111535 -1.477178,-0.155414 -1.93673,-0.891972 -0.192669,-0.308811 0.313869,-0.593787 0.340899,-0.735933 -0.06315,-0.130198 -0.643761,-0.194437 -0.550179,-0.589482 0.198134,-0.836346 0.768705,-1.297637 1.575509,-1.446558 z"
         sodipodi:nodetypes="szsscss"
         inkscape:transform-center-x="3.2686676"
         inkscape:transform-center-y="0.5765728" />
      <path
         id="path47"
         style="font-variation-settings:normal;vector-effect:none;fill:#f0cece;fill-opacity:1;stroke-width:0.0023613px;stroke-linecap:butt;stroke-linejoin:miter;stroke-miterlimit:4;stroke-dasharray:none;stroke-dashoffset:0;stroke-opacity:1;-inkscape-stroke:none;paint-order:stroke fill markers;stop-color:#000000;stop-opacity:1"
         d="m 86.559552,18.500943 c 0.458071,0.844962 0.349706,2.916666 -0.407357,3.299969 -0.757045,0.383339 -2.483082,-0.759413 -2.900881,-1.624999 -0.35905,-0.74397 -0.30874,-1.452889 0.249725,-2.117586 0.234142,-0.278684 0.661721,0.114982 0.805261,0.09676 0.104309,-0.100296 -0.01405,-0.672336 0.390581,-0.70543 0.856636,-0.07005 1.471686,0.330013 1.862671,1.051291 z"
         sodipodi:nodetypes="szsscss"
         inkscape:transform-center-x="1.6705799"
         inkscape:transform-center-y="-3.0199293" />
    </g>
  </g>
</svg>
