<svg role="img" viewBox="0 0 24 24" xmlns="http://www.w3.org/2000/svg"><title>Kando</title><path d="M22.774 6.735c-1.387 1.468-5.592 2.607-6.853 1.346-1.261-1.26-.108-5.454 1.346-6.853C18.517.024 19.965-.34 21.657.34c.709.286.203 1.397.333 1.67.269.143 1.333-.467 1.664.32.7 1.663.304 3.153-.88 4.405m-5.83 12.606c-1.824-.866-4.207-4.515-3.398-6.103.81-1.589 5.152-1.79 6.933-.838 1.53.817 2.324 2.082 2.2 3.902-.052.762-1.265.625-1.486.833-.052.3.857 1.124.212 1.68-1.366 1.18-2.905 1.265-4.461.526m-10.317.122c.26-2.002 2.993-5.397 4.753-5.118s3.293 4.348 2.94 6.336c-.304 1.71-1.262 2.853-3.03 3.3-.741.185-.985-1.01-1.252-1.157-.3.042-.803 1.162-1.532.72-1.546-.934-2.1-2.371-1.879-4.081M3.33 9.664c1.985-.367 6.054 1.195 6.328 2.957S6.53 17.089 4.53 17.36c-1.72.235-3.103-.326-4.068-1.873-.405-.65.66-1.248.716-1.546-.133-.274-1.352-.41-1.156-1.239.417-1.757 1.615-2.726 3.31-3.039m8.29-6.142c.963 1.775.735 6.127-.855 6.933S5.549 8.86 4.67 7.04c-.754-1.563-.648-3.053.525-4.45.492-.585 1.39.242 1.691.204.22-.21-.03-1.412.82-1.481 1.8-.147 3.092.692 3.913 2.208"/></svg>